<svg width="504" height="83" viewBox="0 0 504 83" fill="none" xmlns="http://www.w3.org/2000/svg">
<g id="acc-btn">
<g id="Group" filter="url(#filter0_f)">
<path id="Vector" d="M495.878 41.9085C495.878 60.6357 480.923 75.311 462.476 75.311C444.028 75.311 429.073 60.6357 429.073 41.9085C429.073 23.1814 444.028 8 462.476 8C480.923 8 495.878 23.1814 495.878 41.9085Z" fill="#FFCB00"/>
<path id="Vector_2" d="M462.476 75.311C480.923 75.311 495.878 60.6357 495.878 41.9085C495.878 23.1814 480.923 8 462.476 8V75.311ZM462.476 75.311C444.028 75.311 429.073 60.6357 429.073 41.9085C429.073 23.1814 444.028 8 462.476 8V75.311ZM462.476 75.311L27.7378 74.8049L8 53.0427L35.8354 8H462.476" fill="#FFCB00"/>
<path id="Vector_3" d="M462.476 75.311L27.7378 74.8049L8 53.0427L35.8354 8H462.476V75.311ZM462.476 75.311C480.923 75.311 495.878 60.6357 495.878 41.9085C495.878 23.1814 480.923 8 462.476 8V75.311ZM462.476 75.311C444.028 75.311 429.073 60.6357 429.073 41.9085C429.073 23.1814 444.028 8 462.476 8V75.311Z" stroke="#CFDA75" stroke-width="1.0122"/>
</g>
<path id="account-btn" d="M83.7618 47.3625C83.6898 49.4505 83.5458 54.4905 77.8938 54.4905C76.3818 54.4905 74.6538 54.0585 73.7178 52.8705C71.4138 49.9905 71.4138 43.4025 71.4138 42.7545C71.4138 39.6585 71.8098 34.2225 73.7178 31.9905C74.9058 30.6225 76.8138 30.4065 77.8218 30.4065C81.7098 30.4065 83.7978 32.7825 83.7978 37.0665H90.7818C90.4938 34.8345 90.1338 32.3145 86.4978 29.7945C84.1218 28.1385 80.8818 27.4185 78.0738 27.4185C72.3498 27.4185 64.2498 30.0465 64.2498 42.4305C64.2498 54.5265 71.8818 57.4425 78.3258 57.4425C81.5658 57.4425 86.2458 56.6865 89.0538 52.6545C90.4938 50.5665 90.7098 48.9465 90.9258 47.3625H83.7618ZM107.501 36.3105C102.101 36.3465 100.877 39.7305 100.337 41.2785L100.193 36.8505H94.0732V56.9025H100.337V45.3105C100.733 44.1225 101.597 41.4585 107.501 41.5665V36.3105ZM122.921 49.5225C122.885 51.2865 122.813 54.8865 119.573 54.8865C116.297 54.8865 116.153 50.8905 116.045 48.0825H129.617C129.617 45.0585 129.653 36.3105 119.501 36.3105C114.173 36.3105 109.493 38.7945 109.493 46.8225C109.493 53.3025 112.481 57.4425 119.681 57.4425C128.177 57.4425 129.077 52.0425 129.509 49.5225H122.921ZM116.045 45.5625C116.225 41.2425 116.693 38.9025 119.537 38.9025C122.741 38.9025 122.849 42.6825 122.885 45.5625H116.045ZM152.473 56.9025C151.825 55.6065 151.681 53.3385 151.681 51.6105V44.6265C151.681 38.7225 148.153 36.3105 142.645 36.3105C133.213 36.3105 132.997 40.8825 132.889 42.8985H139.333C139.369 41.2065 139.405 38.9745 142.285 38.9745C144.769 38.9745 145.525 40.0185 145.525 42.6105V44.2305C139.729 44.2665 131.989 44.3025 131.989 51.2505C131.989 53.3025 132.745 57.4425 139.081 57.4425C143.329 57.4425 144.877 56.0385 145.813 55.1745C145.957 55.4985 146.209 56.1465 146.785 56.9025H152.473ZM145.525 52.9065C144.769 53.5185 143.581 54.4905 141.493 54.4905C139.693 54.4905 138.253 53.7345 138.253 51.1065C138.253 47.4345 139.981 46.6425 145.525 46.6425V52.9065ZM163.593 39.4065H168.669V36.8505H163.593V29.6505L157.293 30.4785V36.8505H154.233V39.4065H157.293V50.7465C157.293 56.7585 161.433 57.4425 163.485 57.4425C164.529 57.4425 166.869 57.1905 168.921 56.2545L168.273 53.7345C167.769 53.9865 166.905 54.3825 165.825 54.3825C164.061 54.3825 163.593 52.9785 163.593 51.2865V39.4065ZM184.269 49.5225C184.233 51.2865 184.161 54.8865 180.921 54.8865C177.645 54.8865 177.501 50.8905 177.393 48.0825H190.965C190.965 45.0585 191.001 36.3105 180.849 36.3105C175.521 36.3105 170.841 38.7945 170.841 46.8225C170.841 53.3025 173.829 57.4425 181.029 57.4425C189.525 57.4425 190.425 52.0425 190.857 49.5225H184.269ZM177.393 45.5625C177.573 41.2425 178.041 38.9025 180.885 38.9025C184.089 38.9025 184.197 42.6825 184.233 45.5625H177.393ZM223.253 49.5225L225.233 56.9025H232.685L223.901 27.9945H213.821L205.073 56.9025H212.489L214.505 49.5225H223.253ZM217.133 39.7665L218.861 31.6665L220.625 39.7665L222.533 46.7865H215.225L217.133 39.7665ZM248.217 56.9025H254.517V44.4105C254.517 37.5345 250.305 36.3105 247.353 36.3105C243.753 36.3105 242.097 38.5425 241.377 39.4785L241.197 36.8505H235.293V56.9025H241.557V42.4305C242.565 40.8465 243.789 39.5505 245.517 39.5505C247.785 39.5505 248.217 41.4945 248.217 43.1145V56.9025ZM287.273 49.5225L289.253 56.9025H296.705L287.921 27.9945H277.841L269.093 56.9025H276.509L278.525 49.5225H287.273ZM281.153 39.7665L282.881 31.6665L284.645 39.7665L286.553 46.7865H279.245L281.153 39.7665ZM312.704 48.9465C312.632 51.0345 312.56 54.9225 309.104 54.9225C306.944 54.9225 305.288 53.5545 305.288 46.8225C305.288 40.7745 306.512 38.9745 309.104 38.9745C312.668 38.9745 312.704 42.4305 312.74 44.5185H319.22C318.932 42.8985 318.644 41.4585 317.744 40.1265C315.548 36.9945 311.588 36.3105 309.068 36.3105C302.768 36.3105 298.664 40.0905 298.664 46.8225C298.664 50.3505 299.888 57.4425 309.14 57.4425C318.356 57.4425 318.968 51.1785 319.184 48.9465H312.704ZM335.38 48.9465C335.308 51.0345 335.236 54.9225 331.78 54.9225C329.62 54.9225 327.964 53.5545 327.964 46.8225C327.964 40.7745 329.188 38.9745 331.78 38.9745C335.344 38.9745 335.38 42.4305 335.416 44.5185H341.896C341.608 42.8985 341.32 41.4585 340.42 40.1265C338.224 36.9945 334.264 36.3105 331.744 36.3105C325.444 36.3105 321.34 40.0905 321.34 46.8225C321.34 50.3505 322.564 57.4425 331.816 57.4425C341.032 57.4425 341.644 51.1785 341.86 48.9465H335.38ZM354.276 36.3105C347.472 36.3105 344.124 40.8465 344.124 46.8945C344.124 52.8705 347.436 57.4425 354.276 57.4425C361.188 57.4425 364.428 52.7985 364.428 46.8945C364.428 40.8105 361.008 36.3105 354.276 36.3105ZM354.276 38.8665C356.724 38.8665 357.912 40.9545 357.912 46.7865C357.912 51.7545 357.192 54.8865 354.276 54.8865C351.288 54.8865 350.604 51.6825 350.604 46.7865C350.604 41.1345 351.684 38.8665 354.276 38.8665ZM373.639 36.8505H367.375V49.4145C367.375 55.8585 371.479 57.4425 374.467 57.4425C378.283 57.4425 379.939 55.0305 380.515 54.2025L380.659 56.9025H386.527V36.8505H380.227V51.3585C379.831 52.0425 378.535 54.2025 376.411 54.2025C373.891 54.2025 373.639 51.8625 373.639 50.6025V36.8505ZM402.939 56.9025H409.239V44.4105C409.239 37.5345 405.027 36.3105 402.075 36.3105C398.475 36.3105 396.819 38.5425 396.099 39.4785L395.919 36.8505H390.015V56.9025H396.279V42.4305C397.287 40.8465 398.511 39.5505 400.239 39.5505C402.507 39.5505 402.939 41.4945 402.939 43.1145V56.9025ZM421.007 39.4065H426.083V36.8505H421.007V29.6505L414.707 30.4785V36.8505H411.647V39.4065H414.707V50.7465C414.707 56.7585 418.847 57.4425 420.899 57.4425C421.943 57.4425 424.283 57.1905 426.335 56.2545L425.687 53.7345C425.183 53.9865 424.319 54.3825 423.239 54.3825C421.475 54.3825 421.007 52.9785 421.007 51.2865V39.4065Z" fill="black"/>
<g id="SmashBall 1">
<path id="Vector_4" d="M458.327 18.8545C463.937 17.9273 469.849 18.9704 474.717 21.9377C479.307 24.7195 482.946 29.0545 484.801 34.085C486.215 37.7709 486.586 41.8277 486.099 45.7223C476.826 45.7686 467.577 45.7223 458.327 45.7454C458.327 36.7741 458.304 27.8259 458.327 18.8545Z" fill="#040612" stroke="#040612" stroke-width="0.021733"/>
<path id="Vector_5" d="M439.225 36.5654C440.408 31.7668 443.19 27.4086 446.945 24.1864C447.015 31.3727 446.945 38.5591 446.968 45.7454C444.21 45.7223 441.451 45.7918 438.692 45.7223C438.368 42.6623 438.437 39.5559 439.225 36.5654Z" fill="#040612" stroke="#040612" stroke-width="0.021733"/>
<path id="Vector_6" d="M439.921 50.3818C442.262 50.3818 444.627 50.3818 446.968 50.3818C446.968 53.7895 446.991 57.1973 446.968 60.6282C443.746 57.9391 441.219 54.3691 439.921 50.3818Z" fill="#040612" stroke="#040612" stroke-width="0.021733"/>
<path id="Vector_7" d="M458.327 50.3818C467.206 50.3818 476.085 50.3586 484.94 50.405C482.854 56.27 478.403 61.2541 472.793 63.9432C468.342 66.0991 463.195 66.8409 458.327 65.96C458.304 60.7673 458.327 55.5745 458.327 50.3818Z" fill="#040612" stroke="#040612" stroke-width="0.021733"/>
</g>
</g>
<defs>
<filter id="filter0_f" x="0.283908" y="0.408531" width="503.186" height="82.4945" filterUnits="userSpaceOnUse" color-interpolation-filters="sRGB">
<feFlood flood-opacity="0" result="BackgroundImageFix"/>
<feBlend mode="normal" in="SourceGraphic" in2="BackgroundImageFix" result="shape"/>
<feGaussianBlur stdDeviation="3.54268" result="effect1_foregroundBlur"/>
</filter>
</defs>
</svg>
