<svg width="787" height="190" viewBox="0 0 787 190" fill="none" xmlns="http://www.w3.org/2000/svg">
<path d="M35.4902 36.04C35.3622 39.752 35.1062 48.712 25.0582 48.712C22.3702 48.712 19.2982 47.944 17.6342 45.832C13.5382 40.712 13.5382 29 13.5382 27.848C13.5382 22.344 14.2422 12.68 17.6342 8.712C19.7462 6.28 23.1382 5.896 24.9302 5.896C31.8422 5.896 35.5542 10.12 35.5542 17.736H47.9702C47.4582 13.768 46.8182 9.288 40.3542 4.808C36.1302 1.864 30.3702 0.583996 25.3782 0.583996C15.2022 0.583996 0.802244 5.256 0.802244 27.272C0.802244 48.776 14.3702 53.96 25.8262 53.96C31.5862 53.96 39.9062 52.616 44.8982 45.448C47.4582 41.736 47.8422 38.856 48.2262 36.04H35.4902ZM86.3337 16.392C74.2377 16.392 68.2857 24.456 68.2857 35.208C68.2857 45.832 74.1737 53.96 86.3337 53.96C98.6217 53.96 104.382 45.704 104.382 35.208C104.382 24.392 98.3017 16.392 86.3337 16.392ZM86.3337 20.936C90.6857 20.936 92.7977 24.648 92.7977 35.016C92.7977 43.848 91.5177 49.416 86.3337 49.416C81.0217 49.416 79.8057 43.72 79.8057 35.016C79.8057 24.968 81.7257 20.936 86.3337 20.936ZM148.214 53H159.414V30.792C159.414 18.568 151.926 16.392 146.678 16.392C140.278 16.392 137.334 20.36 136.054 22.024L135.734 17.352H125.238V53H136.374V27.272C138.166 24.456 140.342 22.152 143.414 22.152C147.446 22.152 148.214 25.608 148.214 28.488V53ZM204.207 53H215.407V30.792C215.407 18.568 207.919 16.392 202.671 16.392C196.271 16.392 193.327 20.36 192.047 22.024L191.727 17.352H181.231V53H192.367V27.272C194.159 24.456 196.335 22.152 199.407 22.152C203.439 22.152 204.207 25.608 204.207 28.488V53ZM260.327 39.88C260.263 43.016 260.135 49.416 254.375 49.416C248.551 49.416 248.295 42.312 248.103 37.32H272.231C272.231 31.944 272.295 16.392 254.247 16.392C244.775 16.392 236.455 20.808 236.455 35.08C236.455 46.6 241.767 53.96 254.567 53.96C269.671 53.96 271.271 44.36 272.039 39.88H260.327ZM248.103 32.84C248.423 25.16 249.255 21 254.311 21C260.007 21 260.199 27.72 260.263 32.84H248.103ZM317.024 38.856C316.896 42.568 316.768 49.48 310.624 49.48C306.784 49.48 303.84 47.048 303.84 35.08C303.84 24.328 306.016 21.128 310.624 21.128C316.96 21.128 317.024 27.272 317.088 30.984H328.608C328.096 28.104 327.584 25.544 325.984 23.176C322.08 17.608 315.04 16.392 310.56 16.392C299.36 16.392 292.064 23.112 292.064 35.08C292.064 41.352 294.24 53.96 310.688 53.96C327.072 53.96 328.16 42.824 328.544 38.856H317.024ZM363.992 21.896H373.016V17.352H363.992V4.552L352.792 6.024V17.352H347.352V21.896H352.792V42.056C352.792 52.744 360.152 53.96 363.8 53.96C365.656 53.96 369.816 53.512 373.464 51.848L372.312 47.368C371.416 47.816 369.88 48.52 367.96 48.52C364.824 48.52 363.992 46.024 363.992 43.016V21.896ZM469.678 6.408V1.608H428.654V6.408H443.054V53H455.278V6.408H469.678ZM506.899 16.392C494.803 16.392 488.851 24.456 488.851 35.208C488.851 45.832 494.739 53.96 506.899 53.96C519.187 53.96 524.947 45.704 524.947 35.208C524.947 24.392 518.867 16.392 506.899 16.392ZM506.899 20.936C511.251 20.936 513.363 24.648 513.363 35.016C513.363 43.848 512.083 49.416 506.899 49.416C501.587 49.416 500.371 43.72 500.371 35.016C500.371 24.968 502.291 20.936 506.899 20.936ZM599.82 31.56V53H611.98V30.28L630.54 1.608H624.012L609.804 24.52L596.428 1.608H581.068L599.82 31.56ZM667.751 16.392C655.655 16.392 649.703 24.456 649.703 35.208C649.703 45.832 655.591 53.96 667.751 53.96C680.039 53.96 685.799 45.704 685.799 35.208C685.799 24.392 679.719 16.392 667.751 16.392ZM667.751 20.936C672.103 20.936 674.215 24.648 674.215 35.016C674.215 43.848 672.935 49.416 667.751 49.416C662.439 49.416 661.223 43.72 661.223 35.016C661.223 24.968 663.143 20.936 667.751 20.936ZM717.856 17.352H706.72V39.688C706.72 51.144 714.016 53.96 719.328 53.96C726.112 53.96 729.056 49.672 730.08 48.2L730.336 53H740.768V17.352H729.568V43.144C728.864 44.36 726.56 48.2 722.784 48.2C718.304 48.2 717.856 44.04 717.856 41.8V17.352ZM786.776 16.392C777.176 16.456 775 22.472 774.04 25.224L773.784 17.352H762.904V53H774.04V32.392C774.744 30.28 776.28 25.544 786.776 25.736V16.392ZM154.065 164.04C153.937 167.752 153.681 176.712 143.633 176.712C140.945 176.712 137.873 175.944 136.209 173.832C132.113 168.712 132.113 157 132.113 155.848C132.113 150.344 132.817 140.68 136.209 136.712C138.321 134.28 141.713 133.896 143.505 133.896C150.417 133.896 154.129 138.12 154.129 145.736H166.545C166.033 141.768 165.393 137.288 158.929 132.808C154.705 129.864 148.945 128.584 143.953 128.584C133.777 128.584 119.377 133.256 119.377 155.272C119.377 176.776 132.945 181.96 144.401 181.96C150.161 181.96 158.481 180.616 163.473 173.448C166.033 169.736 166.417 166.856 166.801 164.04H154.065ZM204.909 144.392C192.813 144.392 186.861 152.456 186.861 163.208C186.861 173.832 192.749 181.96 204.909 181.96C217.197 181.96 222.957 173.704 222.957 163.208C222.957 152.392 216.877 144.392 204.909 144.392ZM204.909 148.936C209.261 148.936 211.373 152.648 211.373 163.016C211.373 171.848 210.093 177.416 204.909 177.416C199.597 177.416 198.381 171.72 198.381 163.016C198.381 152.968 200.301 148.936 204.909 148.936ZM243.941 145.352V181H255.077V155.976C255.909 154.184 257.509 150.344 261.477 150.344C264.357 150.344 265.381 152.392 265.381 154.952V181H276.581V155.144C277.349 153.864 279.397 150.344 282.917 150.344C285.989 150.344 286.821 152.712 286.821 154.952V181H297.957V156.36C297.957 149.512 293.477 144.392 286.565 144.392C279.973 144.392 277.285 148.232 275.429 150.92C273.061 146.696 269.861 144.392 265.253 144.392C263.717 144.392 258.597 144.392 254.949 150.152L254.501 145.352H243.941ZM330.235 145.352H319.931V189.064H331.067V178.184C332.731 179.784 335.099 181.96 340.091 181.96C348.283 181.96 355.067 176.008 355.067 163.208C355.067 150.28 348.219 144.392 339.963 144.392C334.587 144.392 331.963 146.952 330.491 148.424L330.235 145.352ZM331.067 152.968C331.835 151.752 333.307 149.256 336.955 149.256C342.075 149.256 343.163 155.336 343.163 162.76C343.163 171.656 341.755 176.712 336.827 176.712C333.307 176.712 331.835 174.408 331.067 173.256V152.968ZM399.027 167.88C398.963 171.016 398.835 177.416 393.075 177.416C387.251 177.416 386.995 170.312 386.803 165.32H410.931C410.931 159.944 410.995 144.392 392.947 144.392C383.475 144.392 375.155 148.808 375.155 163.08C375.155 174.6 380.467 181.96 393.267 181.96C408.371 181.96 409.971 172.36 410.739 167.88H399.027ZM386.803 160.84C387.123 153.16 387.955 149 393.011 149C398.707 149 398.899 155.72 398.963 160.84H386.803ZM446.7 149.896H455.724V145.352H446.7V132.552L435.5 134.024V145.352H430.06V149.896H435.5V170.056C435.5 180.744 442.86 181.96 446.508 181.96C448.364 181.96 452.524 181.512 456.172 179.848L455.02 175.368C454.124 175.816 452.588 176.52 450.668 176.52C447.532 176.52 446.7 174.024 446.7 171.016V149.896ZM477.441 181H488.641V145.352H477.441V181ZM477.441 141.064H488.641V129.608H477.441V141.064ZM526.685 149.896H535.709V145.352H526.685V132.552L515.485 134.024V145.352H510.045V149.896H515.485V170.056C515.485 180.744 522.845 181.96 526.493 181.96C528.349 181.96 532.509 181.512 536.157 179.848L535.005 175.368C534.109 175.816 532.573 176.52 530.653 176.52C527.517 176.52 526.685 174.024 526.685 171.016V149.896ZM557.426 181H568.626V145.352H557.426V181ZM557.426 141.064H568.626V129.608H557.426V141.064ZM608.974 144.392C596.878 144.392 590.926 152.456 590.926 163.208C590.926 173.832 596.814 181.96 608.974 181.96C621.262 181.96 627.022 173.704 627.022 163.208C627.022 152.392 620.942 144.392 608.974 144.392ZM608.974 148.936C613.326 148.936 615.438 152.648 615.438 163.016C615.438 171.848 614.158 177.416 608.974 177.416C603.662 177.416 602.446 171.72 602.446 163.016C602.446 152.968 604.366 148.936 608.974 148.936ZM670.854 181H682.054V158.792C682.054 146.568 674.566 144.392 669.318 144.392C662.918 144.392 659.974 148.36 658.694 150.024L658.374 145.352H647.878V181H659.014V155.272C660.806 152.456 662.982 150.152 666.054 150.152C670.086 150.152 670.854 153.608 670.854 156.488V181Z" fill="white"/>
</svg>
