<svg width="291" height="21" viewBox="0 0 291 21" fill="none" xmlns="http://www.w3.org/2000/svg">
<path d="M0.979594 20H10.0276C16.7236 20 18.4036 14.792 18.4036 10.448C18.4036 8.696 18.0436 4.952 16.1236 3.104C14.7796 1.808 13.2196 0.727999 10.0276 0.727999H0.979594V20ZM7.98759 2.528C10.6516 2.528 13.5556 3.632 13.5556 9.968C13.5556 16.304 11.5876 18.2 7.98759 18.2H5.56359V2.528H7.98759ZM26.8139 6.272C22.2779 6.272 20.0459 9.296 20.0459 13.328C20.0459 17.312 22.2539 20.36 26.8139 20.36C31.4219 20.36 33.5819 17.264 33.5819 13.328C33.5819 9.272 31.3019 6.272 26.8139 6.272ZM26.8139 7.976C28.4459 7.976 29.2379 9.368 29.2379 13.256C29.2379 16.568 28.7579 18.656 26.8139 18.656C24.8219 18.656 24.3659 16.52 24.3659 13.256C24.3659 9.488 25.0859 7.976 26.8139 7.976ZM44.1391 20H48.3391V11.672C48.3391 7.088 45.5311 6.272 43.5631 6.272C41.1631 6.272 40.0591 7.76 39.5791 8.384L39.4591 6.632H35.5231V20H39.6991V10.352C40.3711 9.296 41.1871 8.432 42.3391 8.432C43.8511 8.432 44.1391 9.728 44.1391 10.808V20ZM56.1843 8.336H59.5683V6.632H56.1843V1.832L51.9843 2.384V6.632H49.9443V8.336H51.9843V15.896C51.9843 19.904 54.7443 20.36 56.1123 20.36C56.8083 20.36 58.3683 20.192 59.7363 19.568L59.3043 17.888C58.9683 18.056 58.3923 18.32 57.6723 18.32C56.4963 18.32 56.1843 17.384 56.1843 16.256V8.336ZM82.1125 20V11.672C82.1125 8.984 81.3445 8.144 80.8645 7.664C80.2645 7.04 79.1845 6.272 77.4085 6.272C75.0085 6.272 73.8565 7.712 73.4725 8.192V0.727999H69.2965V20H73.4725V10.472C74.5765 8.696 75.5845 8.552 76.1365 8.552C77.9125 8.552 77.9125 10.424 77.9125 10.928V20H82.1125ZM97.6617 20C97.2297 19.136 97.1337 17.624 97.1337 16.472V11.816C97.1337 7.88 94.7817 6.272 91.1097 6.272C84.8217 6.272 84.6777 9.32 84.6057 10.664H88.9017C88.9257 9.536 88.9497 8.048 90.8697 8.048C92.5257 8.048 93.0297 8.744 93.0297 10.472V11.552C89.1657 11.576 84.0057 11.6 84.0057 16.232C84.0057 17.6 84.5097 20.36 88.7337 20.36C91.5657 20.36 92.5977 19.424 93.2217 18.848C93.3177 19.064 93.4857 19.496 93.8697 20H97.6617ZM93.0297 17.336C92.5257 17.744 91.7337 18.392 90.3417 18.392C89.1417 18.392 88.1817 17.888 88.1817 16.136C88.1817 13.688 89.3337 13.16 93.0297 13.16V17.336ZM102.435 20H109.443L113.043 6.632H108.555L105.939 18.224L103.323 6.632H98.8109L102.435 20ZM123.312 15.08C123.288 16.256 123.24 18.656 121.08 18.656C118.896 18.656 118.8 15.992 118.728 14.12H127.776C127.776 12.104 127.8 6.272 121.032 6.272C117.48 6.272 114.36 7.928 114.36 13.28C114.36 17.6 116.352 20.36 121.152 20.36C126.816 20.36 127.416 16.76 127.704 15.08H123.312ZM118.728 12.44C118.848 9.56 119.16 8 121.056 8C123.192 8 123.264 10.52 123.288 12.44H118.728ZM151.005 20C150.573 19.136 150.477 17.624 150.477 16.472V11.816C150.477 7.88 148.125 6.272 144.453 6.272C138.165 6.272 138.021 9.32 137.949 10.664H142.245C142.269 9.536 142.293 8.048 144.213 8.048C145.869 8.048 146.373 8.744 146.373 10.472V11.552C142.509 11.576 137.349 11.6 137.349 16.232C137.349 17.6 137.853 20.36 142.077 20.36C144.909 20.36 145.941 19.424 146.565 18.848C146.661 19.064 146.829 19.496 147.213 20H151.005ZM146.373 17.336C145.869 17.744 145.077 18.392 143.685 18.392C142.485 18.392 141.525 17.888 141.525 16.136C141.525 13.688 142.677 13.16 146.373 13.16V17.336ZM161.491 20H165.691V11.672C165.691 7.088 162.883 6.272 160.915 6.272C158.515 6.272 157.411 7.76 156.931 8.384L156.811 6.632H152.875V20H157.051V10.352C157.723 9.296 158.539 8.432 159.691 8.432C161.203 8.432 161.491 9.728 161.491 10.808V20ZM189.232 20C188.8 19.136 188.704 17.624 188.704 16.472V11.816C188.704 7.88 186.352 6.272 182.68 6.272C176.392 6.272 176.248 9.32 176.176 10.664H180.472C180.496 9.536 180.52 8.048 182.44 8.048C184.096 8.048 184.6 8.744 184.6 10.472V11.552C180.736 11.576 175.576 11.6 175.576 16.232C175.576 17.6 176.08 20.36 180.304 20.36C183.136 20.36 184.168 19.424 184.792 18.848C184.888 19.064 185.056 19.496 185.44 20H189.232ZM184.6 17.336C184.096 17.744 183.304 18.392 181.912 18.392C180.712 18.392 179.752 17.888 179.752 16.136C179.752 13.688 180.904 13.16 184.6 13.16V17.336ZM200.029 14.696C199.981 16.088 199.933 18.68 197.629 18.68C196.189 18.68 195.085 17.768 195.085 13.28C195.085 9.248 195.901 8.048 197.629 8.048C200.005 8.048 200.029 10.352 200.053 11.744H204.373C204.181 10.664 203.989 9.704 203.389 8.816C201.925 6.728 199.285 6.272 197.605 6.272C193.405 6.272 190.669 8.792 190.669 13.28C190.669 15.632 191.485 20.36 197.653 20.36C203.797 20.36 204.205 16.184 204.349 14.696H200.029ZM215.146 14.696C215.098 16.088 215.05 18.68 212.746 18.68C211.306 18.68 210.202 17.768 210.202 13.28C210.202 9.248 211.018 8.048 212.746 8.048C215.122 8.048 215.146 10.352 215.17 11.744H219.49C219.298 10.664 219.106 9.704 218.506 8.816C217.042 6.728 214.402 6.272 212.722 6.272C208.522 6.272 205.786 8.792 205.786 13.28C205.786 15.632 206.602 20.36 212.77 20.36C218.914 20.36 219.322 16.184 219.466 14.696H215.146ZM227.744 6.272C223.208 6.272 220.976 9.296 220.976 13.328C220.976 17.312 223.184 20.36 227.744 20.36C232.352 20.36 234.512 17.264 234.512 13.328C234.512 9.272 232.232 6.272 227.744 6.272ZM227.744 7.976C229.376 7.976 230.168 9.368 230.168 13.256C230.168 16.568 229.688 18.656 227.744 18.656C225.752 18.656 225.296 16.52 225.296 13.256C225.296 9.488 226.016 7.976 227.744 7.976ZM240.653 6.632H236.477V15.008C236.477 19.304 239.213 20.36 241.205 20.36C243.749 20.36 244.853 18.752 245.237 18.2L245.333 20H249.245V6.632H245.045V16.304C244.781 16.76 243.917 18.2 242.501 18.2C240.821 18.2 240.653 16.64 240.653 15.8V6.632ZM260.186 20H264.386V11.672C264.386 7.088 261.578 6.272 259.61 6.272C257.21 6.272 256.106 7.76 255.626 8.384L255.506 6.632H251.57V20H255.746V10.352C256.418 9.296 257.234 8.432 258.386 8.432C259.898 8.432 260.186 9.728 260.186 10.808V20ZM272.231 8.336H275.615V6.632H272.231V1.832L268.031 2.384V6.632H265.991V8.336H268.031V15.896C268.031 19.904 270.791 20.36 272.159 20.36C272.855 20.36 274.415 20.192 275.783 19.568L275.351 17.888C275.015 18.056 274.439 18.32 273.719 18.32C272.543 18.32 272.231 17.384 272.231 16.256V8.336ZM281.311 14.264H285.487V13.256C285.487 10.976 285.799 10.16 287.479 9.056C289.687 7.568 290.479 7.016 290.479 5C290.479 0.775999 285.919 0.343998 283.975 0.343998C282.031 0.343998 279.391 0.727999 277.927 2.744C277.423 3.416 277.255 4.184 277.015 5.192L281.119 5.792C281.143 3.992 281.191 2.12 283.615 2.12C285.175 2.12 286.135 2.888 286.135 4.88C286.135 5.936 285.943 6.92 284.527 7.952C281.815 9.944 281.311 10.4 281.311 13.568V14.264ZM281.311 20H285.487V15.704H281.311V20Z" fill="white"/>
</svg>
