<svg width="489" height="52" viewBox="0 0 489 52" fill="none" xmlns="http://www.w3.org/2000/svg">
<path d="M22.6862 19.632H18.5102V28.008C18.5102 32.304 21.2462 33.36 23.2382 33.36C25.7822 33.36 26.8862 31.752 27.2702 31.2L27.3662 33H31.2782V19.632H27.0782V29.304C26.8142 29.76 25.9502 31.2 24.5342 31.2C22.8542 31.2 22.6862 29.64 22.6862 28.8V19.632ZM39.0274 28.104C39.0754 29.664 39.1954 33.384 45.2914 33.384C47.0194 33.384 50.9794 33.024 50.9794 29.328C50.9794 27.144 49.5874 25.992 47.8834 25.344C46.5634 24.84 44.4034 23.976 44.2114 23.88C43.8754 23.712 43.5394 23.232 43.5394 22.464C43.5394 21.672 43.7794 21 44.8114 21C46.3474 21 46.5154 21.984 46.4674 23.904H50.6194C50.4754 22.272 50.2114 21.576 49.5394 20.88C48.0994 19.344 45.7714 19.272 45.0274 19.272C42.2914 19.272 39.3634 19.992 39.3634 23.232C39.3634 24.792 39.8914 25.992 42.6754 27.072C43.1314 27.24 45.7234 28.272 45.9394 28.392C46.7314 28.848 46.7794 29.544 46.7794 30.024C46.7794 30.384 46.7794 31.608 45.1474 31.608C43.4434 31.608 43.1794 30.552 43.1554 28.104H39.0274ZM59.2273 33H63.4273V19.632H59.2273V33ZM59.2273 18.024H63.4273V13.728H59.2273V18.024ZM80.7657 33H84.9657V24.672C84.9657 20.088 82.1577 19.272 80.1897 19.272C77.7897 19.272 76.6857 20.76 76.2057 21.384L76.0857 19.632H72.1497V33H76.3257V23.352C76.9977 22.296 77.8137 21.432 78.9657 21.432C80.4777 21.432 80.7657 22.728 80.7657 23.808V33ZM106.635 19.032C106.491 18.96 106.347 18.936 106.107 18.936C104.835 18.936 104.283 19.704 103.875 20.256C103.179 19.848 102.243 19.272 99.5548 19.272C98.4748 19.272 93.5548 19.272 93.5548 23.136C93.5548 24.84 94.3468 25.632 94.6588 25.944C94.2988 26.184 93.5308 26.664 93.5308 27.672C93.5308 29.088 94.9228 29.28 95.7628 29.376C95.0908 29.52 92.8348 29.976 92.8348 32.424C92.8348 35.808 97.4668 36.024 99.3388 36.024C103.899 36.024 106.275 34.848 106.275 32.112C106.275 28.224 101.523 28.032 98.0668 27.936C96.8428 27.888 96.2908 27.864 96.2908 27.336C96.2908 27.144 96.3868 26.976 96.4588 26.856C96.9148 26.976 97.7788 27.192 99.5548 27.192C101.571 27.192 105.387 26.904 105.387 23.424C105.387 22.608 105.123 22.032 105.003 21.696C105.243 21.6 105.651 21.576 105.795 21.576C106.251 21.576 106.467 21.72 106.635 21.84V19.032ZM99.5548 25.344C97.8268 25.344 97.6348 23.928 97.6348 23.256C97.6348 21.96 98.2348 20.952 99.5308 20.952C101.115 20.952 101.283 22.656 101.283 23.184C101.283 23.688 101.211 25.344 99.5548 25.344ZM99.5548 29.568C101.115 29.568 102.219 30.312 102.219 31.92C102.219 33.048 101.643 34.272 99.5068 34.272C97.9948 34.272 96.8908 33.528 96.8908 31.92C96.8908 30.24 98.0908 29.568 99.5548 29.568ZM133.56 21.336H136.944V19.632H133.56V14.832L129.36 15.384V19.632H127.32V21.336H129.36V28.896C129.36 32.904 132.12 33.36 133.488 33.36C134.184 33.36 135.744 33.192 137.112 32.568L136.68 30.888C136.344 31.056 135.768 31.32 135.048 31.32C133.872 31.32 133.56 30.384 133.56 29.256V21.336ZM157.376 33V24.672C157.376 21.984 156.608 21.144 156.128 20.664C155.528 20.04 154.448 19.272 152.672 19.272C150.272 19.272 149.12 20.712 148.736 21.192V13.728H144.56V33H148.736V23.472C149.84 21.696 150.848 21.552 151.4 21.552C153.176 21.552 153.176 23.424 153.176 23.928V33H157.376ZM174.221 28.08C174.197 29.256 174.149 31.656 171.989 31.656C169.805 31.656 169.709 28.992 169.637 27.12H178.685C178.685 25.104 178.709 19.272 171.941 19.272C168.389 19.272 165.269 20.928 165.269 26.28C165.269 30.6 167.261 33.36 172.061 33.36C177.725 33.36 178.325 29.76 178.613 28.08H174.221ZM169.637 25.44C169.757 22.56 170.069 21 171.965 21C174.101 21 174.173 23.52 174.197 25.44H169.637ZM209.043 33H213.243V24.672C213.243 20.088 210.435 19.272 208.467 19.272C206.067 19.272 204.963 20.76 204.483 21.384L204.363 19.632H200.427V33H204.603V23.352C205.275 22.296 206.091 21.432 207.243 21.432C208.755 21.432 209.043 22.728 209.043 23.808V33ZM230.088 28.08C230.064 29.256 230.016 31.656 227.856 31.656C225.672 31.656 225.576 28.992 225.504 27.12H234.552C234.552 25.104 234.576 19.272 227.808 19.272C224.256 19.272 221.136 20.928 221.136 26.28C221.136 30.6 223.128 33.36 227.928 33.36C233.592 33.36 234.192 29.76 234.48 28.08H230.088ZM225.504 25.44C225.624 22.56 225.936 21 227.832 21C229.968 21 230.04 23.52 230.064 25.44H225.504ZM253.965 19.632H251.229L248.709 30.576L246.237 19.632H241.749L245.181 33H250.005L252.597 21.672L255.213 33H260.013L263.469 19.632H258.957L256.485 30.576L253.965 19.632ZM293.453 33H297.653V24.672C297.653 20.088 294.845 19.272 292.877 19.272C290.477 19.272 289.373 20.76 288.893 21.384L288.773 19.632H284.837V33H289.013V23.352C289.685 22.296 290.501 21.432 291.653 21.432C293.165 21.432 293.453 22.728 293.453 23.808V33ZM314.499 28.08C314.475 29.256 314.427 31.656 312.267 31.656C310.083 31.656 309.987 28.992 309.915 27.12H318.963C318.963 25.104 318.987 19.272 312.219 19.272C308.667 19.272 305.547 20.928 305.547 26.28C305.547 30.6 307.539 33.36 312.339 33.36C318.003 33.36 318.603 29.76 318.891 28.08H314.499ZM309.915 25.44C310.035 22.56 310.347 21 312.243 21C314.379 21 314.451 23.52 314.475 25.44H309.915ZM332.376 21.336H335.76V19.632H332.376V14.832L328.176 15.384V19.632H326.136V21.336H328.176V28.896C328.176 32.904 330.936 33.36 332.304 33.36C333 33.36 334.56 33.192 335.928 32.568L335.496 30.888C335.16 31.056 334.584 31.32 333.864 31.32C332.688 31.32 332.376 30.384 332.376 29.256V21.336ZM347.24 19.632H343.376V36.024H347.552V31.944C348.176 32.544 349.064 33.36 350.936 33.36C354.008 33.36 356.552 31.128 356.552 26.328C356.552 21.48 353.984 19.272 350.888 19.272C348.872 19.272 347.888 20.232 347.336 20.784L347.24 19.632ZM347.552 22.488C347.84 22.032 348.392 21.096 349.76 21.096C351.68 21.096 352.088 23.376 352.088 26.16C352.088 29.496 351.56 31.392 349.712 31.392C348.392 31.392 347.84 30.528 347.552 30.096V22.488ZM364.901 33H369.101V13.728H364.901V33ZM391.071 33C390.639 32.136 390.543 30.624 390.543 29.472V24.816C390.543 20.88 388.191 19.272 384.519 19.272C378.231 19.272 378.087 22.32 378.015 23.664H382.311C382.335 22.536 382.359 21.048 384.279 21.048C385.935 21.048 386.439 21.744 386.439 23.472V24.552C382.575 24.576 377.415 24.6 377.415 29.232C377.415 30.6 377.919 33.36 382.143 33.36C384.975 33.36 386.007 32.424 386.631 31.848C386.727 32.064 386.895 32.496 387.279 33H391.071ZM386.439 30.336C385.935 30.744 385.143 31.392 383.751 31.392C382.551 31.392 381.591 30.888 381.591 29.136C381.591 26.688 382.743 26.16 386.439 26.16V30.336ZM403.261 36.024H405.397L412.405 19.632H410.197L406.909 27.648L403.069 19.632H398.053L404.821 32.64L403.261 36.024Z" fill="white"/>
<g clip-path="url(#clip0)">
<path fill-rule="evenodd" clip-rule="evenodd" d="M436.11 22.9351L434.368 23.9353C433.367 24.5122 432.536 25.3404 431.957 26.337C431.379 27.3337 431.074 28.464 431.072 29.6149V32.5486C431.074 33.6988 431.38 34.8284 431.958 35.8243C432.537 36.8202 433.367 37.6477 434.368 38.2243L456.679 51.0414C457.681 51.6161 458.818 51.9187 459.975 51.9187C461.132 51.9187 462.268 51.6161 463.271 51.0414L485.581 38.2168C486.582 37.6403 487.413 36.8127 487.991 35.8167C488.569 34.8208 488.875 33.6913 488.877 32.5411V29.6111C488.875 28.4609 488.569 27.3314 487.991 26.3354C487.413 25.3395 486.582 24.5119 485.581 23.9353L483.84 22.9351C484.24 21.8908 484.443 20.7822 484.441 19.6646C484.44 17.7649 483.848 15.9119 482.747 14.3597C481.646 12.8076 480.09 11.6323 478.291 10.995C476.492 10.3578 474.539 10.2897 472.7 10.8002C470.861 11.3106 469.225 12.3747 468.018 13.8463L463.271 11.1245C462.268 10.5489 461.132 10.2458 459.975 10.2458C458.818 10.2458 457.681 10.5489 456.679 11.1245L451.931 13.8463C450.724 12.3747 449.088 11.3106 447.249 10.8002C445.41 10.2897 443.457 10.3578 441.658 10.995C439.86 11.6323 438.303 12.8076 437.202 14.3597C436.101 15.9119 435.51 17.7649 435.509 19.6646C435.506 20.7822 435.71 21.8908 436.11 22.9351ZM439.167 23.7991L435.509 25.9017C434.854 26.2787 434.311 26.8201 433.933 27.4718C433.554 28.1234 433.355 28.8624 433.354 29.6149V32.5449C433.355 33.2973 433.554 34.0364 433.933 34.688C434.311 35.3396 434.854 35.8811 435.509 36.2581L457.82 49.0751C458.475 49.4502 459.218 49.6477 459.975 49.6477C460.731 49.6477 461.474 49.4502 462.13 49.0751L484.441 36.2581C485.095 35.8811 485.639 35.3396 486.017 34.688C486.395 34.0364 486.595 33.2973 486.596 32.5449V29.6149C486.595 28.8624 486.395 28.1234 486.017 27.4718C485.639 26.8201 485.095 26.2787 484.441 25.9017L480.782 23.7991C481.371 23.014 481.785 22.1137 481.999 21.1576C482.213 20.2015 482.221 19.2112 482.022 18.2519C481.823 17.2925 481.423 16.3859 480.846 15.5917C480.27 14.7975 479.532 14.1337 478.679 13.644C477.827 13.1543 476.879 12.8498 475.9 12.7504C474.921 12.6511 473.931 12.7593 472.997 13.0679C472.063 13.3764 471.205 13.8783 470.479 14.5405C469.754 15.2027 469.178 16.0103 468.789 16.91L462.13 13.0846C461.474 12.7094 460.731 12.512 459.975 12.512C459.218 12.512 458.475 12.7094 457.82 13.0846L451.16 16.91C450.772 16.0103 450.195 15.2027 449.47 14.5405C448.745 13.8783 447.887 13.3764 446.952 13.0679C446.018 12.7593 445.028 12.6511 444.049 12.7504C443.07 12.8498 442.123 13.1543 441.27 13.644C440.418 14.1337 439.679 14.7975 439.103 15.5917C438.526 16.3859 438.126 17.2925 437.927 18.2519C437.729 19.2112 437.736 20.2015 437.95 21.1576C438.164 22.1137 438.579 23.014 439.167 23.7991Z" fill="white"/>
<path d="M436.396 34.1202C436.442 34.08 436.499 34.0545 436.56 34.047L457.585 31.3832C459.174 31.2155 460.776 31.2155 462.364 31.3832L483.387 34.047C483.448 34.0545 483.505 34.08 483.551 34.1202C483.471 34.1841 483.386 34.2414 483.297 34.2917L460.989 47.1089C460.68 47.2848 460.33 47.3776 459.975 47.3776C459.619 47.3776 459.269 47.2848 458.961 47.1089L436.65 34.293C436.561 34.2418 436.476 34.184 436.396 34.1202Z" fill="white"/>
<path d="M475.187 24.3314C474.259 24.3314 473.352 24.0577 472.581 23.5449C471.81 23.0321 471.208 22.3033 470.853 21.4506C470.498 20.5978 470.405 19.6595 470.586 18.7542C470.767 17.849 471.214 17.0175 471.87 16.3648C472.526 15.7121 473.362 15.2677 474.272 15.0876C475.181 14.9075 476.124 15 476.982 15.3532C477.839 15.7064 478.571 16.3045 479.087 17.072C479.602 17.8394 479.877 18.7417 479.877 19.6647C479.877 20.9024 479.383 22.0894 478.503 22.9646C477.624 23.8397 476.431 24.3314 475.187 24.3314ZM477.595 19.6647C477.595 19.1907 477.454 18.7274 477.189 18.3333C476.925 17.9392 476.548 17.632 476.108 17.4507C475.668 17.2693 475.184 17.2218 474.717 17.3143C474.25 17.4068 473.82 17.635 473.484 17.9701C473.147 18.3053 472.917 18.7323 472.824 19.1972C472.731 19.662 472.779 20.1439 472.961 20.5817C473.144 21.0196 473.452 21.3939 473.849 21.6572C474.245 21.9206 474.71 22.0611 475.187 22.0611C475.825 22.0611 476.438 21.8086 476.89 21.3592C477.341 20.9098 477.595 20.3003 477.595 19.6647Z" fill="white"/>
<path d="M444.798 24.3314C443.87 24.3314 442.963 24.0577 442.192 23.5449C441.42 23.0321 440.819 22.3033 440.464 21.4506C440.109 20.5978 440.016 19.6595 440.197 18.7542C440.378 17.849 440.825 17.0175 441.481 16.3648C442.137 15.7121 442.973 15.2677 443.883 15.0876C444.792 14.9075 445.735 15 446.592 15.3532C447.449 15.7064 448.182 16.3045 448.697 17.072C449.213 17.8394 449.488 18.7417 449.488 19.6647C449.488 20.9024 448.994 22.0894 448.114 22.9646C447.235 23.8397 446.042 24.3314 444.798 24.3314ZM447.206 19.6647C447.206 19.1907 447.065 18.7274 446.8 18.3333C446.535 17.9392 446.159 17.632 445.719 17.4507C445.279 17.2693 444.795 17.2218 444.328 17.3143C443.86 17.4068 443.431 17.635 443.094 17.9701C442.758 18.3053 442.528 18.7323 442.435 19.1972C442.342 19.662 442.39 20.1439 442.572 20.5817C442.755 21.0196 443.063 21.3939 443.459 21.6572C443.855 21.9206 444.321 22.0611 444.798 22.0611C445.436 22.0611 446.049 21.8086 446.501 21.3592C446.952 20.9098 447.206 20.3003 447.206 19.6647Z" fill="white"/>
</g>
<defs>
<clipPath id="clip0">
<rect width="57.9494" height="42" fill="white" transform="matrix(-1 0 0 1 488.949 10)"/>
</clipPath>
</defs>
</svg>
