<svg width="509" height="89" viewBox="0 0 509 89" fill="none" xmlns="http://www.w3.org/2000/svg">
<g id="login">
<g id="login-btn">
<g id="Group" filter="url(#filter0_f)">
<path id="Vector" d="M498.878 45.2052C498.878 64.0963 483.923 78.9 465.476 78.9C447.028 78.9 432.073 64.0963 432.073 45.2052C432.073 26.3142 447.028 11 465.476 11C483.923 11 498.878 26.3142 498.878 45.2052Z" fill="#040612"/>
<path id="Vector_2" d="M30.7378 78.3895L465.476 78.9C483.923 78.9 498.878 64.0963 498.878 45.2052C498.878 26.3142 483.923 11 465.476 11H38.8354L11 56.4368L30.7378 78.3895Z" stroke="#FFCB00" stroke-width="6"/>
</g>
<path id="Vector_3" d="M465.476 78.9C483.923 78.9 498.878 64.0963 498.878 45.2052C498.878 26.3142 483.923 11 465.476 11V78.9ZM465.476 78.9C447.028 78.9 432.073 64.0963 432.073 45.2052C432.073 26.3142 447.028 11 465.476 11V78.9ZM465.476 78.9L30.7378 78.3895L11 56.4368L38.8354 11H465.476" fill="#040612"/>
</g>
<path id="Login" d="M205.719 29.092H198.879V58H218.931V55.3H205.719V29.092ZM230.986 37.408C224.182 37.408 220.834 41.944 220.834 47.992C220.834 53.968 224.146 58.54 230.986 58.54C237.898 58.54 241.138 53.896 241.138 47.992C241.138 41.908 237.718 37.408 230.986 37.408ZM230.986 39.964C233.434 39.964 234.622 42.052 234.622 47.884C234.622 52.852 233.902 55.984 230.986 55.984C227.998 55.984 227.314 52.78 227.314 47.884C227.314 42.232 228.394 39.964 230.986 39.964ZM264.282 37.048C264.066 36.94 263.85 36.904 263.49 36.904C261.582 36.904 260.754 38.056 260.142 38.884C259.098 38.272 257.694 37.408 253.662 37.408C252.042 37.408 244.662 37.408 244.662 43.204C244.662 45.76 245.85 46.948 246.318 47.416C245.778 47.776 244.626 48.496 244.626 50.008C244.626 52.132 246.714 52.42 247.974 52.564C246.966 52.78 243.582 53.464 243.582 57.136C243.582 62.212 250.53 62.536 253.338 62.536C260.178 62.536 263.742 60.772 263.742 56.668C263.742 50.836 256.614 50.548 251.43 50.404C249.594 50.332 248.766 50.296 248.766 49.504C248.766 49.216 248.91 48.964 249.018 48.784C249.702 48.964 250.998 49.288 253.662 49.288C256.686 49.288 262.41 48.856 262.41 43.636C262.41 42.412 262.014 41.548 261.834 41.044C262.194 40.9 262.806 40.864 263.022 40.864C263.706 40.864 264.03 41.08 264.282 41.26V37.048ZM253.662 46.516C251.07 46.516 250.782 44.392 250.782 43.384C250.782 41.44 251.682 39.928 253.626 39.928C256.002 39.928 256.254 42.484 256.254 43.276C256.254 44.032 256.146 46.516 253.662 46.516ZM253.662 52.852C256.002 52.852 257.658 53.968 257.658 56.38C257.658 58.072 256.794 59.908 253.59 59.908C251.322 59.908 249.666 58.792 249.666 56.38C249.666 53.86 251.466 52.852 253.662 52.852ZM267.518 58H273.818V37.948H267.518V58ZM267.518 35.536H273.818V29.092H267.518V35.536ZM291.006 58H297.306V45.508C297.306 38.632 293.094 37.408 290.142 37.408C286.542 37.408 284.886 39.64 284.166 40.576L283.986 37.948H278.082V58H284.346V43.528C285.354 41.944 286.578 40.648 288.306 40.648C290.574 40.648 291.006 42.592 291.006 44.212V58Z" fill="#FFCB00"/>
<g id="SmashBall 2">
<path id="Vector_4" d="M461.327 20.9408C466.937 20.0054 472.849 21.0577 477.717 24.0509C482.307 26.8571 485.946 31.23 487.801 36.3045C489.215 40.0227 489.586 44.115 489.099 48.0436C479.826 48.0904 470.577 48.0436 461.327 48.067C461.327 39.0171 461.304 29.9906 461.327 20.9408Z" fill="#FFCB00" stroke="#FFCB00" stroke-width="0.021733"/>
<path id="Vector_5" d="M442.225 38.8067C443.408 33.966 446.19 29.5697 449.945 26.3192C450.015 33.5685 449.945 40.8177 449.968 48.067C447.21 48.0436 444.451 48.1138 441.692 48.0436C441.368 44.9568 441.437 41.8233 442.225 38.8067Z" fill="#FFCB00" stroke="#FFCB00" stroke-width="0.021733"/>
<path id="Vector_6" d="M442.921 52.7439C445.262 52.7439 447.627 52.7439 449.968 52.7439C449.968 56.1815 449.991 59.619 449.968 63.08C446.746 60.3673 444.219 56.7661 442.921 52.7439Z" fill="#FFCB00" stroke="#FFCB00" stroke-width="0.021733"/>
<path id="Vector_7" d="M461.327 52.7439C470.206 52.7439 479.085 52.7205 487.94 52.7673C485.854 58.6836 481.403 63.7113 475.793 66.4239C471.342 68.5987 466.195 69.347 461.327 68.4584C461.304 63.2202 461.327 57.9821 461.327 52.7439Z" fill="#FFCB00" stroke="#FFCB00" stroke-width="0.021733"/>
</g>
</g>
<defs>
<filter id="filter0_f" x="0.187296" y="0.91464" width="508.776" height="88.0707" filterUnits="userSpaceOnUse" color-interpolation-filters="sRGB">
<feFlood flood-opacity="0" result="BackgroundImageFix"/>
<feBlend mode="normal" in="SourceGraphic" in2="BackgroundImageFix" result="shape"/>
<feGaussianBlur stdDeviation="3.54268" result="effect1_foregroundBlur"/>
</filter>
</defs>
</svg>
