<svg width="58" height="42" viewBox="0 0 58 42" fill="none" xmlns="http://www.w3.org/2000/svg">
<g clip-path="url(#clip0)">
<path fill-rule="evenodd" clip-rule="evenodd" d="M5.10961 12.9351L3.36794 13.9353C2.36685 14.5122 1.53563 15.3404 0.957462 16.337C0.379032 17.3337 0.073597 18.464 0.0720024 19.6149V22.5486C0.0743942 23.6988 0.380093 24.8284 0.958256 25.8243C1.53669 26.8202 2.36738 27.6477 3.36794 28.2243L25.6787 41.0414C26.6811 41.6161 27.8178 41.9187 28.9747 41.9187C30.1315 41.9187 31.2682 41.6161 32.2706 41.0414L54.5815 28.2168C55.5818 27.6403 56.4126 26.8127 56.991 25.8167C57.5693 24.8208 57.875 23.6913 57.8774 22.5411V19.6111C57.875 18.4609 57.5693 17.3314 56.991 16.3354C56.4126 15.3395 55.5818 14.5119 54.5815 13.9353L52.8397 12.9351C53.2396 11.8908 53.4432 10.7822 53.4406 9.66462C53.4397 7.76487 52.8482 5.91187 51.7472 4.35973C50.6462 2.80759 49.0896 1.63231 47.2908 0.995033C45.4921 0.357757 43.5392 0.289691 41.7 0.800169C39.8609 1.31064 38.2254 2.37467 37.018 3.84635L32.2706 1.1245C31.2684 0.54886 30.1318 0.24581 28.9747 0.24581C27.8175 0.24581 26.6809 0.54886 25.6787 1.1245L20.9314 3.84635C19.7238 2.37467 18.0884 1.31064 16.2492 0.800169C14.4102 0.289691 12.4572 0.357757 10.6584 0.995033C8.85984 1.63231 7.30318 2.80759 6.20214 4.35973C5.1011 5.91187 4.50965 7.76487 4.50885 9.66462C4.5062 10.7822 4.70982 11.8908 5.10961 12.9351ZM8.16711 13.7991L4.50859 15.9017C3.85413 16.2787 3.31052 16.8201 2.93252 17.4718C2.55426 18.1234 2.35463 18.8624 2.35356 19.6149V22.5449C2.35463 23.2973 2.55426 24.0364 2.93252 24.688C3.31052 25.3396 3.85413 25.8811 4.50859 26.2581L26.8196 39.0751C27.4751 39.4502 28.2184 39.6477 28.9747 39.6477C29.7309 39.6477 30.4739 39.4502 31.1297 39.0751L53.4405 26.2581C54.095 25.8811 54.6386 25.3396 55.0168 24.688C55.395 24.0364 55.5946 23.2973 55.5956 22.5449V19.6149C55.5946 18.8624 55.395 18.1234 55.0168 17.4718C54.6386 16.8201 54.095 16.2787 53.4405 15.9017L49.7821 13.7991C50.3706 13.014 50.7854 12.1137 50.9991 11.1576C51.2128 10.2015 51.2206 9.21118 51.0219 8.25186C50.8232 7.29253 50.4226 6.38594 49.8465 5.59171C49.2703 4.79752 48.5317 4.13373 47.6791 3.644C46.8265 3.15428 45.8794 2.84975 44.9001 2.75044C43.9207 2.65114 42.9313 2.75932 41.997 3.06786C41.0627 3.37637 40.2046 3.87827 39.4793 4.54052C38.7539 5.20274 38.1778 6.01028 37.7887 6.91004L31.1297 3.08455C30.4739 2.7094 29.7309 2.51197 28.9747 2.51197C28.2184 2.51197 27.4751 2.7094 26.8196 3.08455L20.1605 6.91004C19.7716 6.01028 19.1953 5.20274 18.4699 4.54052C17.7447 3.87827 16.8866 3.37637 15.9523 3.06786C15.0179 2.75932 14.0285 2.65114 13.0492 2.75044C12.0699 2.84975 11.1228 3.15428 10.27 3.644C9.41753 4.13373 8.67881 4.79752 8.10278 5.59171C7.52647 6.38594 7.12588 7.29253 6.92731 8.25186C6.72874 9.21118 6.73645 10.2015 6.95017 11.1576C7.16389 12.1137 7.57858 13.014 8.16711 13.7991Z" fill="white"/>
<path d="M5.39617 24.1202C5.44189 24.08 5.49904 24.0545 5.55965 24.047L26.5852 21.3832C28.1737 21.2155 29.7756 21.2155 31.3641 21.3832L52.3871 24.047C52.4478 24.0545 52.5048 24.08 52.5506 24.1202C52.4709 24.1841 52.3861 24.2414 52.2971 24.2917L29.9888 37.1089C29.6801 37.2848 29.3303 37.3776 28.9746 37.3776C28.6187 37.3776 28.2692 37.2848 27.9605 37.1089L5.64977 24.293C5.56098 24.2418 5.47618 24.184 5.39617 24.1202Z" fill="white"/>
<path d="M44.1866 14.3314C43.259 14.3314 42.3522 14.0577 41.5808 13.5449C40.8095 13.0321 40.2083 12.3033 39.8533 11.4506C39.4983 10.5978 39.4054 9.6595 39.5864 8.75424C39.7674 7.84898 40.2141 7.01746 40.8701 6.36478C41.526 5.71213 42.3617 5.26768 43.2716 5.08761C44.1814 4.90754 45.1245 4.99997 45.9816 5.35317C46.8386 5.70639 47.5711 6.30455 48.0865 7.07198C48.6019 7.83941 48.877 8.74169 48.877 9.66468C48.877 10.9024 48.3828 12.0894 47.5032 12.9646C46.6236 13.8397 45.4306 14.3314 44.1866 14.3314ZM46.5952 9.66468C46.5952 9.19072 46.4539 8.72739 46.1893 8.33328C45.9246 7.9392 45.5485 7.63204 45.1084 7.45067C44.6682 7.26927 44.184 7.22182 43.7168 7.3143C43.2495 7.40675 42.8204 7.63499 42.4835 7.97014C42.1467 8.30529 41.9173 8.73228 41.8244 9.19715C41.7314 9.66202 41.7791 10.1439 41.9614 10.5817C42.1437 11.0196 42.4524 11.3939 42.8485 11.6572C43.2446 11.9206 43.7103 12.0611 44.1866 12.0611C44.8254 12.0611 45.4381 11.8086 45.8897 11.3592C46.3414 10.9098 46.5952 10.3003 46.5952 9.66468Z" fill="white"/>
<path d="M13.7975 14.3314C12.8698 14.3314 11.9631 14.0577 11.1916 13.5449C10.4205 13.0321 9.8192 12.3033 9.46406 11.4506C9.10918 10.5978 9.01641 9.6595 9.19717 8.75424C9.3782 7.84898 9.82504 7.01746 10.4808 6.36478C11.1369 5.71213 11.9726 5.26768 12.8825 5.08761C13.7922 4.90754 14.7353 4.99997 15.5923 5.35317C16.4493 5.70639 17.182 6.30455 17.6974 7.07198C18.2128 7.83941 18.4879 8.74169 18.4879 9.66468C18.4879 10.9024 17.9938 12.0894 17.1142 12.9646C16.2346 13.8397 15.0416 14.3314 13.7975 14.3314ZM16.2061 9.66468C16.2061 9.19072 16.0647 8.72739 15.8002 8.33328C15.5354 7.9392 15.1593 7.63204 14.7191 7.45067C14.2792 7.26927 13.7948 7.22182 13.3275 7.3143C12.8605 7.40675 12.4312 7.63499 12.0944 7.97014C11.7576 8.30529 11.5282 8.73228 11.4351 9.19715C11.3424 9.66202 11.3899 10.1439 11.5723 10.5817C11.7547 11.0196 12.0633 11.3939 12.4594 11.6572C12.8554 11.9206 13.3211 12.0611 13.7975 12.0611C14.4363 12.0611 15.049 11.8086 15.5006 11.3592C15.9523 10.9098 16.2061 10.3003 16.2061 9.66468Z" fill="white"/>
</g>
<defs>
<clipPath id="clip0">
<rect width="57.9494" height="42" fill="white" transform="matrix(-1 0 0 1 57.9493 0)"/>
</clipPath>
</defs>
</svg>
