<svg width="51" height="51" viewBox="0 0 51 51" fill="none" xmlns="http://www.w3.org/2000/svg">
<path d="M21.3273 1.85455C26.9373 0.927279 32.8486 1.97046 37.7168 4.93773C42.3068 7.71955 45.9463 12.0546 47.8009 17.085C49.215 20.7709 49.5859 24.8277 49.0991 28.7223C39.8263 28.7686 30.5768 28.7223 21.3273 28.7455C21.3273 19.7741 21.3041 10.8259 21.3273 1.85455Z" fill="white" stroke="#FFCB00" stroke-width="0.021733"/>
<path d="M2.22546 19.5655C3.40773 14.7668 6.18955 10.4086 9.94501 7.18637C10.0146 14.3727 9.94501 21.5591 9.96819 28.7455C7.20955 28.7223 4.45092 28.7918 1.69228 28.7223C1.36773 25.6623 1.43728 22.5559 2.22546 19.5655Z" fill="white" stroke="#FFCB00" stroke-width="0.021733"/>
<path d="M2.9209 33.3818C5.26226 33.3818 7.62681 33.3818 9.96817 33.3818C9.96817 36.7895 9.99135 40.1973 9.96817 43.6282C6.7459 40.9391 4.21908 37.3691 2.9209 33.3818Z" fill="white" stroke="#FFCB00" stroke-width="0.021733"/>
<path d="M21.3273 33.3818C30.2059 33.3818 39.0845 33.3586 47.94 33.405C45.8536 39.27 41.4027 44.2541 35.7927 46.9432C31.3418 49.0991 26.1954 49.8409 21.3273 48.96C21.3041 43.7673 21.3273 38.5745 21.3273 33.3818Z" fill="white" stroke="#FFCB00" stroke-width="0.021733"/>
</svg>
